<svg xmlns="http://www.w3.org/2000/svg" fill="none" viewBox="0 0 24 24">
    <g fill="#461582">
        <path d="M9.75 15.5a2.25 2.25 0 1 1 4.5 0 2.25 2.25 0 0 1-4.5 0Z"/>
        <path fill-rule="evenodd" d="M5.67 3.78C5 4.78 5 6.19 5 9v6c0 2.8 0 4.21.67 5.22a4 4 0 0 0 1.1 1.1C7.8 22 9.2 22 12 22c2.8 0 4.21 0 5.22-.67a4 4 0 0 0 1.1-1.1C19 19.2 19 17.8 19 15V9c0-2.8 0-4.21-.67-5.22a4 4 0 0 0-1.1-1.1C16.2 2 14.8 2 12 2c-2.8 0-4.21 0-5.22.67a4 4 0 0 0-1.1 1.1ZM12 11.75a3.75 3.75 0 1 0 0 7.5 3.75 3.75 0 0 0 0-7.5ZM11 9.5a1 1 0 1 1-2 0 1 1 0 0 1 2 0ZM10 7a1 1 0 1 0 0-2 1 1 0 0 0 0 2Zm5 2.5a1 1 0 1 1-2 0 1 1 0 0 1 2 0ZM14 7a1 1 0 1 0 0-2 1 1 0 0 0 0 2Z" clip-rule="evenodd"/>
    </g>
    <style>
    @media (prefers-color-scheme: dark) {
        g, path { fill: #8632ed; }
    }
    </style>
</svg>