<svg xmlns="http://www.w3.org/2000/svg" viewBox="0 0 264.6 264.6"><defs><radialGradient id="a" cx="98.1" cy="200.9" r="132.3" gradientTransform="matrix(2.3 0 0 2.3 -120.7 -260.2)" gradientUnits="userSpaceOnUse"><stop offset="0" stop-color="#35402c"/><stop offset="1" stop-color="#1c231e"/></radialGradient></defs><rect width="264.6" height="264.6" fill="url(#a)" rx="26.5" ry="26.5"/><path fill="#0bc20b" d="M23.3 102.8H42V75.6h11c17.7 0 32.7-8.3 32.7-27.1C85.6 29 71 22.6 52.9 22.6H23.3zM42 61.2V37h9.6c10 0 15.4 3 15.4 11.5 0 8.3-5 12.7-15.4 12.7zm58 41.6h58V87.6h-19.5V37.9H158V22.6h-58V38h19.5v49.7h-19.4zm76.1 0h19.1V81l9.6-12.2 17.8 34.1h21l-27.5-48.3 25.1-31.9h-20.9l-24.7 32.9h-.4v-33h-19.1z" aria-label="PIK"/><path fill="#84d226" d="M61.4 246.4h28V137.9h37.2v-25.5H24.3v25.5h37zm111.3 0h33.7l37.2-134h-28.5l-14.6 62.4c-3.6 14.6-6.3 28.2-10 43h-.9c-3.6-14.8-6-28.4-9.8-43l-14.9-62.4h-29.6z" aria-label="TV"/></svg>